<?xml version="1.0" encoding="utf-8"?>
<!-- Generator: Adobe Illustrator 25.2.1, SVG Export Plug-In . SVG Version: 6.00 Build 0)  -->
<svg version="1.1" id="Layer_1" xmlns="http://www.w3.org/2000/svg" xmlns:xlink="http://www.w3.org/1999/xlink" x="0px" y="0px"
	 viewBox="0 0 1188 297" style="enable-background:new 0 0 1188 297;" xml:space="preserve">
<style type="text/css">
	.st0{fill:#FFFFFF;}
</style>
<g>
	<path class="st0" d="M125.2,163.7c5.4-2.6,9.1-8.2,9.1-14.6c0-6.4-3.7-12-9.1-14.6c-3.2-1.6-5.4-4.8-5.4-8.3c0-3.4,1.9-6.4,4.8-8.1
		c4-2.3,6.6-6.5,6.6-11.4c0-5.1-2.8-9.4-7-11.7c-2.7-1.4-4.4-4.3-4.4-7.4v-0.9c0-3,1.7-5.7,4.3-7.3c3.2-2,5.3-5.5,5.3-9.6
		c0-4-2.1-7.5-5.3-9.5c-2.8-1.8-4.3-5-4.3-8.2c0-2.9,1.2-5.8,3.5-7.6c2-1.5,3.3-4,3.3-6.7c0-2.7-1.3-5.1-3.3-6.7
		c-2.3-1.8-3.4-4.7-3.4-7.6v-1.8c0-2.5,1.1-4.7,2.8-6.5c1.3-1.4,1.9-3.4,1.4-5.6c-0.5-2-2.2-3.7-4.2-4.3c-4-1.1-7.7,2-7.7,5.8
		c0,1.5,0.6,2.9,1.5,4c1.7,1.9,2.8,4.2,2.8,6.8v1.6c0,2.9-1.2,5.8-3.4,7.6c-2,1.5-3.3,4-3.3,6.7c0,2.7,1.3,5.1,3.3,6.7
		c2.3,1.8,3.5,4.7,3.5,7.6v0c0,3.3-1.5,6.5-4.3,8.2c-3.2,2-5.3,5.5-5.3,9.5c0,4,2.1,7.6,5.3,9.6c2.6,1.6,4.3,4.2,4.3,7.3v0.9
		c0,3.1-1.7,5.9-4.4,7.4c-4.2,2.2-7,6.6-7,11.7c0,4.9,2.7,9.2,6.6,11.4c2.9,1.7,4.8,4.7,4.8,8.1v0c0,3.6-2.1,6.8-5.4,8.3
		c-5.4,2.6-9.1,8.2-9.1,14.6c0,6.4,3.7,12,9.1,14.6c3.2,1.6,5.4,4.8,5.4,8.3v0c0,3.4-1.9,6.4-4.8,8.1c-4,2.3-6.6,6.5-6.6,11.4
		c0,4.8,2.5,9,6.4,11.3c3.1,1.8,5.1,5,5.1,8.5v0c0,3.3-1.5,6.4-4.3,8.2c-3.2,2-5.3,5.5-5.3,9.6c0,4.1,2.2,7.6,5.4,9.6
		c2.5,1.5,4.2,4.1,4.2,7.1v1c0,2.6-1.4,5-3.4,6.6c-2,1.5-3.3,4-3.3,6.7s1.3,5.1,3.3,6.7c2.3,1.8,3.4,4.7,3.4,7.6v0.9
		c0,2.5-1.1,4.7-2.8,6.5c-1.3,1.4-1.9,3.4-1.4,5.6c0.5,2,2.2,3.7,4.2,4.3c4,1.1,7.7-2,7.7-5.8c0-1.6-0.6-3-1.6-4.1
		c-1.7-1.8-2.7-4-2.7-6.4v-0.9c0-2.9,1.2-5.8,3.4-7.6c2-1.5,3.3-4,3.3-6.7c0-2.7-1.3-5.1-3.3-6.7c-2.1-1.6-3.4-4-3.4-6.6v-1
		c0-2.9,1.7-5.6,4.2-7.1c3.2-2,5.4-5.5,5.4-9.6c0-4-2.1-7.6-5.3-9.6c-2.8-1.7-4.3-4.9-4.3-8.2v0c0-3.6,2-6.7,5.1-8.5
		c3.8-2.3,6.4-6.5,6.4-11.3c0-4.9-2.7-9.1-6.6-11.4c-2.9-1.7-4.8-4.7-4.8-8.1C119.9,168.4,122,165.2,125.2,163.7"/>
	<path class="st0" d="M182.1,223.2c-2,0.4-3.7,1.9-4.4,3.8l0,0.1c-1.4,4.1-3.5,7.9-6.7,10.8l-9.5,8.5c-4.2,3.8-9.3,6.2-14.7,8
		c0,0-0.1,0-0.1,0c-1.9,0.7-3.4,2.3-3.9,4.3c-1,4.4,2.8,8.3,7.2,7.4c2-0.4,3.7-1.9,4.4-3.8l0-0.1c1.4-4.1,3.5-7.9,6.7-10.8l9.5-8.5
		c4.2-3.8,9.3-6.2,14.7-8l0.1,0c1.9-0.7,3.4-2.3,3.9-4.3C190.3,226.1,186.5,222.2,182.1,223.2"/>
	<path class="st0" d="M142.7,69.8c0,5.3,4.9,9.5,10.5,8.2c3.1-0.7,5.6-3.3,6.2-6.4c0.7-3.3-0.5-6.3-2.7-8.2
		c-3.1-2.7-4.8-6.7-5.1-10.8l-0.2-2.7c-0.2-3.2,0.8-6.3,2.5-9c0.8-1.4,1.1-3.1,0.7-4.9c-0.5-2-2.2-3.6-4.2-4.1
		c-4.1-1.1-7.7,2-7.7,5.8c0,1.5,0.5,2.8,1.4,3.8c2.1,2.6,3.7,5.6,3.9,8.9l0.2,2.9c0.3,4.1-1.2,8-3.8,11.3
		C143.3,66.1,142.7,67.9,142.7,69.8"/>
	<path class="st0" d="M191.4,183.2c-3.1,0.5-5.7,2.8-6.7,5.8l0,0.1c-1.9,6.2-5,11.9-9.8,16.2l-6.7,6c-5.4,4.8-12,7.8-19.1,9.5
		c0,0-0.1,0-0.1,0c-3.1,0.8-5.6,3.4-6.2,6.5c-1.1,5.9,3.8,11,9.7,10c3.1-0.5,5.7-2.8,6.7-5.8l0-0.1c1.9-6.2,5-11.9,9.8-16.2l6.7-6
		c5.4-4.8,12-7.8,19.1-9.5c0,0,0.1,0,0.1,0c3.1-0.8,5.6-3.4,6.2-6.5C202.2,187.3,197.2,182.3,191.4,183.2"/>
	<path class="st0" d="M149.8,96.1c-3.4,1.3-6,4.3-6.8,7.8c-1.8,8,4.9,15.1,12.8,13.8c4.7-0.7,8.5-4.5,9.3-9.2
		c0.2-1.3,0.2-2.5,0.1-3.6c-0.8-5.5,1.1-11,4.6-15.3l6.1-7.6c2.5-3.1,5.9-5.2,9.7-6.6c0,0,0,0,0.1,0c1.9-0.7,3.3-2.4,3.7-4.3
		c1-4.5-3-8.4-7.5-7.2c-2,0.5-3.6,2-4.2,4c-0.2,0.5-0.3,1.1-0.3,1.6c-0.2,3.8-1.8,7.4-4.2,10.4l-5.9,7.4c-3.5,4.4-8.6,7.6-14.2,8.1
		C152,95.4,150.9,95.7,149.8,96.1"/>
	<path class="st0" d="M193.9,137.9c-4.6,0.7-8.4,4.2-9.3,8.8c-0.1,0.4-0.1,0.8-0.2,1.1c-0.9,8.1-5.1,15.5-10.8,21.3l-0.3,0.3
		c-5.7,5.8-13,9.8-21,11c-0.3,0-0.6,0.1-0.9,0.2c-4.4,1-8,4.7-8.7,9.2c-1.2,7.6,5.3,14.1,12.9,13c4.6-0.7,8.4-4.2,9.3-8.8
		c0.1-0.4,0.1-0.8,0.2-1.2c0.9-8.1,5.1-15.5,10.8-21.3l0.3-0.3c5.7-5.8,13-9.8,21-11c0.3,0,0.6-0.1,0.9-0.2c4.4-1,8-4.7,8.7-9.2
		C208,143.2,201.5,136.8,193.9,137.9"/>
	<path class="st0" d="M184.6,104.5c-0.1,0.3-0.1,0.7-0.2,1c-0.7,5.7-2.6,11.1-6.4,15.4l-4.3,5c-5,5.8-12.1,9-19.7,10.1
		c-0.4,0.1-0.9,0.1-1.3,0.2c-4.8,1.1-8.6,5-9.7,9.8c-2,9.2,5.5,17.2,14.6,16.1c5.7-0.7,10.4-5.3,11.3-11c0.1-0.8,0.2-1.6,0.2-2.4
		c-0.2-7.1,1.7-14.1,6.4-19.5l4.4-5.1c3.9-4.5,8.9-7.9,14.7-9.2c0.3-0.1,0.5-0.1,0.8-0.2c3-1,5.2-3.6,5.7-6.7
		c0.9-5.8-4.1-10.7-10-9.6C188,98.9,185.3,101.4,184.6,104.5"/>
	<path class="st0" d="M89.5,254.3C89.5,254.3,89.4,254.3,89.5,254.3c-5.5-1.8-10.6-4.2-14.8-8l-9.5-8.5c-3.2-2.9-5.3-6.7-6.7-10.8
		c0,0,0,0,0-0.1c-0.7-1.9-2.4-3.4-4.4-3.8c-4.4-0.9-8.2,3-7.2,7.4c0.5,2,2,3.6,3.9,4.3l0.1,0c5.4,1.8,10.5,4.2,14.7,8l9.5,8.5
		c3.2,2.9,5.3,6.7,6.7,10.8c0,0,0,0.1,0,0.1c0.7,1.9,2.4,3.4,4.4,3.8c4.4,0.9,8.2-3,7.2-7.4C92.9,256.6,91.4,255,89.5,254.3"/>
	<path class="st0" d="M88.3,50.6c0.2-3.3,1.8-6.3,3.9-8.9c0.9-1,1.4-2.4,1.4-3.8c0-3.9-3.7-6.9-7.7-5.8c-2,0.5-3.6,2.1-4.2,4.1
		c-0.5,1.8-0.2,3.5,0.7,4.9c1.7,2.7,2.8,5.8,2.5,9l-0.2,2.7c-0.3,4.1-2,8.1-5.1,10.8c-2.2,1.9-3.4,4.9-2.7,8.2
		c0.6,3.1,3.1,5.7,6.2,6.4c5.5,1.3,10.5-2.9,10.5-8.2c0-1.9-0.6-3.7-1.7-5.1c-2.5-3.3-4.1-7.1-3.8-11.2L88.3,50.6z"/>
	<path class="st0" d="M67.2,215.3c4.8,4.3,7.9,10,9.8,16.2c0,0,0,0.1,0,0.1c0.9,3,3.6,5.3,6.7,5.8c5.9,0.9,10.8-4.1,9.7-10
		c-0.6-3.1-3.1-5.7-6.2-6.5c0,0-0.1,0-0.1,0c-7-1.7-13.7-4.7-19.1-9.5l-6.7-6c-4.8-4.3-8-10.1-9.8-16.2l0-0.1
		c-0.9-3-3.6-5.3-6.7-5.8c-5.9-0.9-10.8,4.1-9.7,10c0.6,3.1,3.1,5.7,6.2,6.5c0,0,0.1,0,0.1,0c7,1.7,13.7,4.7,19.1,9.5L67.2,215.3z"
		/>
	<path class="st0" d="M50.6,75.5C50.7,75.5,50.7,75.5,50.6,75.5c3.8,1.4,7.2,3.5,9.7,6.6l6.1,7.6c3.5,4.3,5.4,9.9,4.6,15.3
		c-0.2,1.2-0.2,2.4,0.1,3.6c0.8,4.7,4.7,8.4,9.3,9.2c7.9,1.2,14.7-5.8,12.8-13.8c-0.8-3.5-3.4-6.5-6.8-7.8c-1.1-0.4-2.2-0.7-3.2-0.8
		c-5.6-0.5-10.7-3.7-14.2-8.1l-5.9-7.4c-2.4-3-4-6.6-4.2-10.4c0-0.5-0.1-1-0.3-1.6c-0.6-1.9-2.2-3.5-4.2-4c-4.5-1.2-8.5,2.7-7.5,7.2
		C47.3,73.1,48.8,74.8,50.6,75.5"/>
	<path class="st0" d="M39,160.3c8,1.2,15.3,5.2,21,11l0.3,0.3c5.7,5.8,9.9,13.2,10.8,21.3c0,0.4,0.1,0.8,0.2,1.2
		c1,4.5,4.8,8.1,9.3,8.8c7.6,1.1,14.1-5.4,12.9-13c-0.7-4.5-4.2-8.3-8.7-9.2c-0.3-0.1-0.6-0.1-0.9-0.2c-8-1.2-15.3-5.2-21-11
		l-0.3-0.3c-5.7-5.8-9.9-13.2-10.8-21.3c0-0.4-0.1-0.8-0.2-1.1c-1-4.5-4.8-8.1-9.3-8.8c-7.6-1.1-14.1,5.4-12.9,13
		c0.7,4.5,4.2,8.3,8.7,9.2C38.4,160.2,38.7,160.2,39,160.3"/>
	<path class="st0" d="M40.8,114.6c0.3,0.1,0.5,0.2,0.8,0.2c5.8,1.3,10.8,4.7,14.7,9.2l4.4,5.1c4.7,5.4,6.6,12.4,6.4,19.5
		c0,0.8,0,1.6,0.2,2.4c0.9,5.7,5.6,10.3,11.3,11c9.1,1.2,16.6-6.9,14.6-16.1c-1.1-4.8-4.9-8.7-9.7-9.8c-0.4-0.1-0.9-0.2-1.3-0.2
		c-7.6-1-14.7-4.3-19.7-10.1l-4.3-5c-3.7-4.3-5.6-9.8-6.4-15.4c0-0.3-0.1-0.7-0.2-1c-0.8-3.1-3.4-5.6-6.6-6.2
		c-5.8-1.1-10.9,3.8-10,9.6C35.6,111,37.9,113.6,40.8,114.6"/>
	<path class="st0" d="M266.8,73.7c8.3,0,15.1,6.7,15.1,15.1c0,8.5-6.8,15.1-15.1,15.1c-8.3,0-15.1-6.7-15.1-15.1
		C251.7,80.3,258.5,73.7,266.8,73.7 M254.1,124.6c0-7.3,5.2-13.2,12.7-13.2c7.5,0,12.7,5.9,12.7,13.2v62.1c0,7.3-5.2,13.2-12.7,13.2
		c-7.5,0-12.7-5.9-12.7-13.2V124.6z"/>
	<path class="st0" d="M297.2,124.6c0-7.3,5.2-13.2,12.7-13.2c6.8,0,11.1,4.4,12.7,8.1c4.1-6.3,12.7-9.8,21.8-9.8
		c7.3,0,17.4,2.6,23.6,10.4c6-4.6,13.7-10.4,24.6-10.4c17.6,0,31.5,9.1,31.5,29.9v47c0,7.3-5.2,13.2-12.7,13.2
		c-7.5,0-12.7-5.9-12.7-13.2v-40.2c0-8-4.4-15.3-12.7-15.3c-8.3,0-12.7,7.3-12.7,15.3v40.2c0,7.3-5.2,13.2-12.7,13.2
		c-7.5,0-12.7-5.9-12.7-13.2v-40.2c0-8-4.4-15.3-12.7-15.3c-8.3,0-12.7,7.3-12.7,15.3v40.2c0,7.3-5.2,13.2-12.7,13.2
		c-7.5,0-12.7-5.9-12.7-13.2V124.6z"/>
	<path class="st0" d="M521.1,167.7c0,23.4-18.2,33.8-39.4,33.8c-21.1,0-39.4-10.4-39.4-33.8v-43.1c0-7.3,5.2-13.2,12.7-13.2
		c7.5,0,12.7,5.9,12.7,13.2v39.5c0,9.6,7.3,14,14,14c6.7,0,14-4.4,14-14v-39.5c0-7.3,5.2-13.2,12.7-13.2c7.5,0,12.7,5.9,12.7,13.2
		V167.7z"/>
	<path class="st0" d="M539.3,86.8c0-7.3,5.2-13.2,12.7-13.2c7.5,0,12.7,5.9,12.7,13.2v54l20.7-20.6c4.4-4.4,8.1-8.8,14.3-8.8
		c7.5,0,12.4,5.5,12.4,11.7c0,4.6-2.9,7.5-8.9,13.3l-13.7,13.5l21.3,27c2.6,3.3,6,7.5,6,11.2c0,4.9-3.7,11.7-12.5,11.7
		c-5.9,0-8.5-1.8-13.8-8.6L565,158.1h-0.3v28.6c0,7.3-5.2,13.2-12.7,13.2c-7.5,0-12.7-5.9-12.7-13.2V86.8z"/>
	<path class="st0" d="M709.3,155.6c0,25.5-17.1,45.9-42.8,45.9c-25.7,0-42.8-20.3-42.8-45.9c0-25.5,17.1-45.9,42.8-45.9
		C692.2,109.8,709.3,130.1,709.3,155.6 M649.1,155.6c0,11.7,6.2,21.5,17.4,21.5c11.2,0,17.4-9.8,17.4-21.5
		c0-11.7-6.2-21.5-17.4-21.5C655.3,134.2,649.1,143.9,649.1,155.6"/>
	<path class="st0" d="M773,119.9c-20.6,0-34.1,14.7-34.1,35.2c0,20.6,13.5,35.2,34.1,35.2c12.8,0,21.9-5.3,27.8-13.1l7.6,5.5
		c-7.6,11-20.2,17.7-35.6,17.7c-26.3,0-44.2-19-44.2-45.3s17.9-45.1,44.2-45.1c15.4,0,28,6.7,35.6,17.5l-7.6,5.7
		C795.1,125.4,785.8,119.9,773,119.9"/>
	<path class="st0" d="M905.7,111.3v87.6h-10.5v-18.3c-6.9,12-19,19.8-35,19.8c-25.3,0-43-19.2-43-45.3c0-26.3,17.7-45.1,43-45.1
		c16,0,28.2,7.6,35,19.6v-18.3H905.7z M895.2,155.1c0-20.6-13.3-35.2-33.9-35.2c-20.4,0-34.1,14.7-34.1,35.2
		c0,20.6,13.7,35.2,34.1,35.2C881.9,190.3,895.2,175.7,895.2,155.1"/>
	<path class="st0" d="M1052.9,144.8v54.1h-10.5V146c0-18.5-11.4-26.5-24.7-26.5c-13.3,0-24.6,8-24.6,26.5v52.9h-10.5V146
		c0-18.5-11.4-26.5-24.7-26.5s-24.6,8-24.6,26.5v52.9h-10.5v-87.6h10.5v12.4c6.1-9.5,16.6-13.7,27-13.7c12.2,0,24.2,4.9,29.5,17.7
		c5.9-12.8,18.1-17.7,30.3-17.7C1036.7,110,1052.9,119.3,1052.9,144.8"/>
	<path class="st0" d="M1158.7,155.3c0,26.3-17.9,45.1-43.2,45.1c-16.2,0-28.4-7.8-35-19.8v53.3H1070V111.3h10.5V130
		c6.7-12.2,18.8-20,35-20C1140.8,110,1158.7,129.2,1158.7,155.3 M1148.4,155.3c0-20.6-13.5-35.4-34.1-35.4
		c-20.6,0-33.9,14.8-33.9,35.4c0,20.6,13.3,35,33.9,35C1134.9,190.3,1148.4,175.9,1148.4,155.3"/>
</g>
</svg>
